<?xml version="1.0" encoding="UTF-8"?>
<svg version="1.1" xmlns="http://www.w3.org/2000/svg" width="1932" height="1087">
<path d="M0 0 C637.56 0 1275.12 0 1932 0 C1932 358.71 1932 717.42 1932 1087 C1916.82 1087 1901.64 1087 1886 1087 C1887.1308384 1084.17290399 1888.28221889 1081.35324838 1889.5 1078.5625 C1890.98801617 1075.15578976 1890.98801617 1075.15578976 1891.9375 1072.1875 C1892.80753508 1069.57739475 1893.79259348 1067.14780741 1894.875 1064.625 C1897.02639707 1059.39790194 1898.29561518 1054.05717312 1899.42919922 1048.53369141 C1900.14827934 1045.31633951 1900.58636947 1043.36878835 1903.08984375 1041.13671875 C1906.21130765 1037.64501986 1905.54898279 1033.71151655 1905.5625 1029.1875 C1906.89656623 973.78136461 1906.89656623 973.78136461 1915.29248047 953.85009766 C1917.83609044 947.70408099 1919.45597915 942.59516096 1919.66796875 935.90625 C1919.70183685 935.07256393 1919.73570496 934.23887787 1919.77059937 933.37992859 C1920.25776528 919.24835533 1920.14921233 905.09224852 1920.13037109 890.9543457 C1920.1246613 886.66537512 1920.12797475 882.376467 1920.13394356 878.08749866 C1920.13759686 874.72498625 1920.13638919 871.3624881 1920.13381577 867.9999752 C1920.13316033 866.42031534 1920.13392497 864.84065408 1920.13629532 863.26099586 C1920.14586845 855.09848076 1920.02217453 846.96327345 1919.56884766 838.81201172 C1919.53208986 838.12400891 1919.49533207 837.43600611 1919.4574604 836.72715473 C1919.06614871 830.40517195 1917.81130487 824.43390699 1916.25 818.3125 C1915.7095704 816.07163026 1915.16920696 813.83074457 1914.62890625 811.58984375 C1914.08714458 809.39293115 1913.54420906 807.19630763 1913 805 C1910.14284628 793.41789402 1907.6276055 782.36811276 1907.1640625 770.42578125 C1906.82975986 763.44522373 1905.83371461 757.89855806 1901.99609375 751.98046875 C1900.6843524 749.3724183 1900.21832712 746.79178966 1899.625 743.9375 C1898.54446638 739.44740692 1897.67788623 736.20839631 1894.0625 733.21875 C1884.54609519 727.59541988 1872.64529727 725.41067328 1862.05932617 722.58618164 C1852.43843623 719.98416307 1843.72745823 716.90983553 1835.4375 711.3125 C1834.51614258 710.70825195 1834.51614258 710.70825195 1833.57617188 710.09179688 C1829.21461546 707.21461546 1829.21461546 707.21461546 1828 706 C1826.42393803 705.65268264 1824.83862922 705.34685523 1823.25 705.0625 C1819.59872421 704.36849864 1816.44340782 703.39597614 1813 702 C1811.783125 701.835 1810.56625 701.67 1809.3125 701.5 C1806 701 1806 701 1804 699 C1801.83000806 698.5769311 1801.83000806 698.5769311 1799.4375 698.4375 C1795.09722222 698.09722222 1795.09722222 698.09722222 1794 697 C1792.53155764 696.84484453 1791.0568935 696.74773626 1789.58203125 696.67578125 C1779.41015519 696.05841047 1770.93920932 695.28037824 1761.73828125 690.73046875 C1756.88850514 688.36120685 1751.74754336 686.7937882 1746.625 685.125 C1745.20368774 684.65960815 1745.20368774 684.65960815 1743.75366211 684.18481445 C1741.50402235 683.45150189 1739.25295949 682.72303681 1737 682 C1737 681.01 1737 680.02 1737 679 C1735.9378125 678.81824219 1734.875625 678.63648438 1733.78125 678.44921875 C1732.35409581 678.1957111 1730.9270164 677.94178218 1729.5 677.6875 C1728.45585937 677.51057617 1728.45585937 677.51057617 1727.390625 677.33007812 C1726.69453125 677.20439453 1725.9984375 677.07871094 1725.28125 676.94921875 C1724.65283203 676.83924561 1724.02441406 676.72927246 1723.37695312 676.6159668 C1721 676 1721 676 1717.50415039 674.46557617 C1711.98626129 672.36283372 1706.48963751 672.56985394 1700.65234375 672.6015625 C1699.48167862 672.59869232 1698.31101349 672.59582214 1697.10487366 672.59286499 C1694.63981642 672.59083099 1692.17474281 672.59631417 1689.7097168 672.60888672 C1685.94608368 672.62496333 1682.18352206 672.60900693 1678.41992188 672.58984375 C1676.01822681 672.59182602 1673.6165324 672.59566934 1671.21484375 672.6015625 C1670.0948851 672.59548981 1668.97492645 672.58941711 1667.82102966 672.5831604 C1661.72158119 672.63784465 1657.40486952 673.14213021 1652 676 C1650.783125 676.495 1649.56625 676.99 1648.3125 677.5 C1645.14109363 678.77051736 1645.14109363 678.77051736 1643.29833984 680.36694336 C1630.26315796 689.62892888 1614.21693536 690.13877333 1598.84423828 689.9675293 C1595.34285116 689.93722172 1591.84859901 689.98809314 1588.34765625 690.04492188 C1586.09374262 690.04389191 1583.83982521 690.03820234 1581.5859375 690.02734375 C1580.55455658 690.04667465 1579.52317566 690.06600555 1578.46054077 690.08592224 C1571.33627569 689.92591409 1567.84715086 688.00955638 1562.84791565 682.94810486 C1562.23810349 682.30523026 1561.62829132 681.66235565 1561 681 C1559.1989723 679.52752196 1557.38848292 678.06641553 1555.5625 676.625 C1547.64607562 670.19429112 1540.33603693 663.00341508 1534 655 C1534 654.34 1534 653.68 1534 653 C1533.4740625 652.77054688 1532.948125 652.54109375 1532.40625 652.3046875 C1529.18863262 650.56007029 1526.37074378 648.37749032 1523.5 646.125 C1522.88560059 645.64611328 1522.27120117 645.16722656 1521.63818359 644.67382812 C1517.30660472 641.22462857 1513.4380135 637.50751105 1509.625 633.5 C1505.31845484 628.99370655 1501.99709284 626.7279759 1496 625 C1493.5652924 623.45376433 1491.31544768 621.72523552 1489 620 C1488.01 619.67 1487.02 619.34 1486 619 C1485.34 618.01 1484.68 617.02 1484 616 C1481.44816596 614.79549696 1481.44816596 614.79549696 1479 614 C1479 612.68 1479 611.36 1479 610 C1478.34 610 1477.68 610 1477 610 C1476.94577053 608.5629191 1476.90710277 607.12524538 1476.875 605.6875 C1476.85179687 604.88699219 1476.82859375 604.08648438 1476.8046875 603.26171875 C1477 601 1477 601 1479 598 C1481.625 597.8125 1481.625 597.8125 1484 598 C1484.226875 597.44183594 1484.45375 596.88367188 1484.6875 596.30859375 C1488.344146 589.87681462 1495.51207329 584.39745665 1502.1875 581.4375 C1508.61337952 578.56115393 1512.24740943 573.51242026 1516.5 568.0859375 C1517.61704937 566.68297668 1518.80220516 565.33468568 1520 564 C1520.99 564 1521.98 564 1523 564 C1523.268125 563.319375 1523.53625 562.63875 1523.8125 561.9375 C1525 559 1525 559 1526.53515625 555.87890625 C1529.87781929 548.03417417 1529.69437478 536.95897475 1526.7109375 529.0234375 C1525.32879392 525.89375131 1523.71294795 522.90312921 1522.04394531 519.91845703 C1520.16214035 516.46026634 1518.53587001 512.88054376 1516.875 509.3125 C1516.53331787 508.59118896 1516.19163574 507.86987793 1515.83959961 507.12670898 C1513.94327509 503.10936824 1512.19276665 499.07199068 1510.5625 494.9375 C1507.15208616 486.54532124 1502.70782264 477.90020613 1497.2265625 470.65625 C1496 469 1496 469 1496 467 C1495.0409375 466.5978125 1495.0409375 466.5978125 1494.0625 466.1875 C1492 465 1492 465 1491 462 C1488.31035817 461.14402074 1488.31035817 461.14402074 1485.0625 460.625 C1479.64612143 459.51334152 1475.41143153 457.96618257 1470.70703125 455.0859375 C1467.9919601 453.99677476 1466.21535888 453.8430721 1463.328125 453.6953125 C1457.25374196 453.20756785 1453.07545581 450.58734228 1447.9375 447.5 C1438.93429546 442.43145837 1432.25475942 440.92104467 1422.08349609 441.05859375 C1418.32404508 440.95286745 1414.68177425 440.22669313 1411 439.5 C1410.31059326 439.36851562 1409.62118652 439.23703125 1408.91088867 439.1015625 C1404.14725296 438.14725296 1404.14725296 438.14725296 1403 437 C1401.43153881 436.89194335 1399.85825535 436.85316214 1398.28611755 436.84178162 C1397.26663025 436.8319928 1396.24714294 436.82220398 1395.19676208 436.81211853 C1393.50499596 436.80348534 1393.50499596 436.80348534 1391.77905273 436.79467773 C1390.59872467 436.78477814 1389.41839661 436.77487854 1388.20230103 436.76467896 C1384.95660881 436.73842921 1381.71092205 436.71659283 1378.46518588 436.69667697 C1375.07654048 436.67485448 1371.68794048 436.64744757 1368.29933167 436.62062073 C1361.8784749 436.57064314 1355.457593 436.52572318 1349.03668696 436.48259836 C1341.72842951 436.43326919 1334.4202176 436.37833509 1327.11200416 436.32291877 C1312.07471186 436.20902099 1297.0373767 436.10219902 1282 436 C1282 436.99 1282 437.98 1282 439 C1276.19069475 441.14604919 1270.72083314 443.1378918 1264.5 443.5 C1260.19517113 443.773757 1258.9194222 444.7785686 1256 448 C1253.66842508 448.34541851 1251.33491639 448.67794257 1249 449 C1246.9934562 450.32346506 1244.99371825 451.65729179 1243 453 C1235.16397147 455.73964208 1227.05629363 455.28160779 1218.86035156 455.25878906 C1217.22348882 455.26150218 1215.58662729 455.26506492 1213.94976807 455.26940918 C1209.51979464 455.27850013 1205.08991475 455.27500177 1200.65993977 455.26865101 C1196.01041229 455.26357051 1191.36089256 455.26828847 1186.71136475 455.27142334 C1178.9003354 455.27505847 1171.08934391 455.2702773 1163.27832031 455.26074219 C1154.27156284 455.24987377 1145.26489605 455.25337332 1136.2581408 455.264395 C1128.50583127 455.27349904 1120.75354888 455.2747375 1113.00123572 455.26951766 C1108.37985994 455.26641309 1103.75852662 455.26594644 1099.13715363 455.27259064 C1094.78685562 455.27840839 1090.43667327 455.27428692 1086.08638763 455.26280212 C1084.49821667 455.26017841 1082.91003581 455.260881 1081.3218689 455.26532745 C1074.46989832 455.28272824 1067.78061111 455.28273164 1061.01954651 454.00297546 C1053.3903458 452.55993812 1045.76243015 452.69585374 1038.0300293 452.69360352 C1036.3513096 452.68596544 1034.67259334 452.67753517 1032.99388123 452.66838074 C1028.4642594 452.6465822 1023.93470502 452.63765587 1019.40503669 452.63255429 C1016.56247985 452.62889112 1013.71994014 452.62264087 1010.87738991 452.6155529 C1000.92403019 452.59110231 990.97072219 452.57801751 981.01733398 452.57446289 C971.80042334 452.57083841 962.58384786 452.54100981 953.36703938 452.49905831 C945.40725685 452.4641239 937.44758406 452.44891043 929.48772556 452.44821686 C924.75470923 452.44743141 920.0220345 452.43903734 915.28909874 452.41021919 C886.30519043 452.18421096 886.30519043 452.18421096 858 458 C857.67 458.33 857.34 458.66 857 459 C855.65813424 459.18996908 854.30806729 459.32294683 852.95703125 459.4296875 C851.71663086 459.53990234 851.71663086 459.53990234 850.45117188 459.65234375 C848.71209426 459.79909049 846.9725004 459.93985992 845.23242188 460.07421875 C840.11522099 460.54121775 836.56890032 461.50787255 832 464 C829.04296875 464.6953125 829.04296875 464.6953125 826.1875 465.125 C822.78666576 465.4034921 822.78666576 465.4034921 820 467 C817.36808897 467.13567929 814.75881327 467.21066197 812.125 467.24609375 C810.48306838 467.27907196 808.84114143 467.31228284 807.19921875 467.34570312 C804.6102264 467.39283343 802.02124722 467.43717477 799.43212891 467.47680664 C796.93370143 467.51694878 794.43569074 467.56842914 791.9375 467.62109375 C791.17775879 467.6295079 790.41801758 467.63792206 789.63525391 467.64659119 C782.70565798 467.80309618 775.68918045 468.68590702 769.5625 472.125 C766.17518248 474 766.17518248 474 764 474 C764 474.99 764 475.98 764 477 C762.68 477.66 761.36 478.32 760 479 C759.67 488.57 759.34 498.14 759 508 C755.04 509.98 755.04 509.98 751 512 C750.0925 512.845625 749.185 513.69125 748.25 514.5625 C744.69199946 517.77649496 740.39802404 518.3265958 735.8046875 519.2265625 C732.84001824 520.04411753 731.41036046 521.15485972 729 523 C726.98131889 523.75232015 724.93649446 524.43696053 722.875 525.0625 C718.50448629 526.29794984 718.50448629 526.29794984 715 529 C712.375 529.125 712.375 529.125 710 529 C709.67 529.99 709.34 530.98 709 532 C707.28705614 532.75764825 705.56955064 533.50777643 703.82421875 534.1875 C701.20432905 535.35438877 699.22812068 537.20663457 697 539 C695.80375 539.556875 694.6075 540.11375 693.375 540.6875 C687.54248376 543.47120093 682.87886888 547.82983531 678 552 C676.83473946 552.96004259 675.6683958 553.91877558 674.5 554.875 C672.0887899 556.8196602 672.0887899 556.8196602 670.58999443 558.60873318 C667.70321638 561.13470336 663.66072743 560.41985497 659.99658203 560.40063477 C659.07402618 560.40761383 658.15147034 560.4145929 657.20095825 560.42178345 C654.1364846 560.44184497 651.07234623 560.44126048 648.0078125 560.44140625 C645.86521505 560.45318603 643.72262578 560.46655172 641.58004761 560.48143005 C635.91636808 560.51771674 630.25276079 560.53782781 624.58898926 560.55297852 C615.58903843 560.57771672 606.58924803 560.61824754 597.58944321 560.67487907 C594.47423118 560.69093507 591.35917487 560.6949633 588.243927 560.69789124 C578.67523 560.73225475 569.19445825 561.00282326 559.66357422 561.89428711 C558.83572481 561.97157578 558.0078754 562.04886446 557.15493965 562.12849522 C552.12382121 562.65015667 547.23205862 563.49360169 542.2908659 564.57488441 C538.49270174 565.27970908 534.72379999 565.29788612 530.87109375 565.30859375 C529.15820003 565.33377438 527.44530948 565.35917207 525.73242188 565.38476562 C523.09595743 565.41326136 520.45954841 565.43734147 517.82299805 565.45629883 C504.37427088 565.57128841 490.8686873 566.06711306 478.0625 570.625 C472.7073494 572.4008961 467.32967876 572.38381234 461.74121094 572.58642578 C456.21351586 572.82451003 451.31849434 573.77805149 445.9921875 575.3125 C442.45151776 576.12602203 439.06466363 576.32484522 435.4375 576.5 C427.8181302 576.87587847 421.19035512 578.60321496 414 581 C412.8499169 582.96672915 412.8499169 582.96672915 412 585 C411 586 411 586 407.9375 586.0625 C406.968125 586.041875 405.99875 586.02125 405 586 C405 586.66 405 587.32 405 588 C402.29363164 589.29592249 399.5850566 590.58683165 396.875 591.875 C396.11445313 592.23980469 395.35390625 592.60460937 394.5703125 592.98046875 C390.43474069 594.94130021 386.36767985 596.60565323 382 598 C380.74131251 598.58585251 379.49071627 599.18949076 378.25 599.8125 C368.91209959 604.03114536 358.44229601 606.64765948 348.3125 608 C343.74609674 608.6577124 341.26268936 609.88399488 337.7421875 612.78125 C335.02788707 614.68004312 332.08500644 615.2802022 328.9140625 616.1328125 C325.47874285 617.15511942 322.18836165 618.45681902 318.875 619.8125 C313.42289932 622.03486544 307.95143465 624.18531929 302.4375 626.25 C301.78313965 626.49596924 301.1287793 626.74193848 300.45458984 626.99536133 C297.54542054 628.08133632 294.63070895 629.12266205 291.68359375 630.1015625 C289.31208288 630.8955181 287.19760258 631.81667553 285 633 C285 633.99 285 634.98 285 636 C280.14143949 638.82943407 275.22832152 641.4494727 270.1875 643.9375 C268.78248787 644.63398505 267.37753991 645.33059959 265.97265625 646.02734375 C265.29605957 646.36233887 264.61946289 646.69733398 263.92236328 647.04248047 C260.53979254 648.72732203 257.17953774 650.45664496 253.8203125 652.1875 C252 653 252 653 250 653 C249.75443359 653.96099609 249.75443359 653.96099609 249.50390625 654.94140625 C248 657 248 657 244.46484375 657.65234375 C242.95662355 657.76066522 241.44734075 657.85477975 239.9375 657.9375 C231.74231033 658.59341369 224.38060102 660.36708852 216.57421875 662.87890625 C211.25994715 664.54578707 206.54388799 665.11479895 201.00756836 665.29101562 C193.49295386 665.53074737 186.64196859 665.95646164 179.44921875 668.31640625 C176.68123776 669.08896873 174.11615981 669.27891356 171.25 669.4375 C166.04256188 669.79892276 163.38857032 671.2368261 159 674 C156.65910883 674.85405648 154.30910831 675.58941753 151.91796875 676.2890625 C149.79904796 676.92277932 149.79904796 676.92277932 148 679 C145.6171875 679.6328125 145.6171875 679.6328125 142.875 680.125 C141.96492187 680.29257812 141.05484375 680.46015625 140.1171875 680.6328125 C139.41851562 680.75398437 138.71984375 680.87515625 138 681 C138 681.66 138 682.32 138 683 C136.35 683.33 134.7 683.66 133 684 C133 684.66 133 685.32 133 686 C131.8553125 686.48210938 130.710625 686.96421875 129.53125 687.4609375 C123.25540702 690.59609674 119.01943431 695.86234161 114.35546875 700.9765625 C110.52967769 705.00518344 107.95701648 707.58776912 102.2552948 708.4574585 C99.33403401 709.16020708 97.07633281 710.56532225 94.4465332 712.01660156 C85.6208585 716.14390487 77.15651659 715.75914225 67.57421875 715.5859375 C65.73193252 715.57472122 63.88962817 715.56619256 62.0473175 715.56021118 C57.24159724 715.53750385 52.43699714 715.47874127 47.63171387 715.4119873 C42.71101019 715.35016993 37.79012222 715.32311263 32.86914062 715.29296875 C23.24560656 715.22897672 13.62289709 715.12682203 4 715 C6.57784846 712.35247996 8.91648098 710.05567935 12 708 C7.18201244 707.77057202 4.85213172 708.38262276 0 710 C0 475.7 0 241.4 0 0 Z M14 705 C14.33 705.66 14.66 706.32 15 707 C15.33 706.34 15.66 705.68 16 705 C15.34 705 14.68 705 14 705 Z " fill="#000000" transform="translate(0,0)"/>
<path d="M0 0 C0.99 1.485 0.99 1.485 2 3 C2.66 2.67 3.32 2.34 4 2 C4.02953103 5.60414885 4.04697407 9.20826576 4.0625 12.8125 C4.07087891 13.81732422 4.07925781 14.82214844 4.08789062 15.85742188 C4.10966319 22.62868824 3.7369831 29.26910926 3 36 C2.34 36 1.68 36 1 36 C0.67 43.26 0.34 50.52 0 58 C-15.65577725 58.1032703 -31.23406848 57.70896132 -46.875 57.0625 C-49.089829 56.97423843 -51.30467277 56.88634682 -53.51953125 56.79882812 C-62.11978864 56.45636018 -70.71958896 56.10735577 -79.31762695 55.71264648 C-89.0285698 55.26827555 -98.71342933 54.84238117 -108.4375 54.9375 C-109.38302734 54.94201172 -110.32855469 54.94652344 -111.30273438 54.95117188 C-113.5352401 54.96250439 -115.76757273 54.9785882 -118 55 C-118.08302368 55.98395752 -118.08302368 55.98395752 -118.16772461 56.98779297 C-118.42009399 59.95057273 -118.67871815 62.91277374 -118.9375 65.875 C-119.02451172 66.90753906 -119.11152344 67.94007813 -119.20117188 69.00390625 C-119.28818359 69.99003906 -119.37519531 70.97617187 -119.46484375 71.9921875 C-119.58267212 73.35899658 -119.58267212 73.35899658 -119.70288086 74.75341797 C-120 77 -120 77 -121 79 C-122.32 79 -123.64 79 -125 79 C-124.98731079 79.9896727 -124.97462158 80.9793454 -124.96154785 81.99900818 C-124.86119058 93.52806566 -125.39146703 104.96793431 -126.09375 116.47265625 C-126.20628627 118.37647478 -126.31837911 120.28031957 -126.43005371 122.18418884 C-126.72157775 127.13427194 -127.0190213 132.08398117 -127.31781006 137.03363037 C-127.62308677 142.10879184 -127.92261056 147.18429269 -128.22265625 152.25976562 C-128.80955701 162.17351247 -129.40272823 172.08687294 -130 182 C-130.33 182 -130.66 182 -131 182 C-131.14197943 168.86303151 -130.740992 155.83779483 -129.94140625 142.7265625 C-129.83131446 140.85999792 -129.72161699 138.99341004 -129.61228943 137.12680054 C-129.38458998 133.25944626 -129.15314486 129.39234179 -128.91870117 125.52539062 C-128.61876541 120.57532064 -128.32704806 115.62480695 -128.03788853 110.67409706 C-127.81325886 106.83924166 -127.58509906 103.0046029 -127.35578728 99.17002487 C-127.24682878 97.34325989 -127.13879206 95.51643967 -127.03170967 93.68956375 C-126.88212456 91.14910109 -126.72796103 88.60895723 -126.57250977 86.06884766 C-126.52935135 85.32186111 -126.48619293 84.57487457 -126.44172668 83.80525208 C-126.21107633 80.11754643 -125.74189122 76.61459166 -125 73 C-125.39938767 70.90178785 -125.39938767 70.90178785 -126 69 C-126 68.01 -126 67.02 -126 66 C-126.20625 64.700625 -126.4125 63.40125 -126.625 62.0625 C-126.93035773 59.60616649 -127.04327929 58.15580543 -126.375 55.75 C-122.36202815 50.64258129 -117.68684603 48.47435853 -111.31689453 47.65478516 C-108.1090736 47.35281831 -104.90130775 47.10442337 -101.6875 46.875 C-100.59759766 46.78863281 -99.50769531 46.70226562 -98.38476562 46.61328125 C-92.23724682 46.14750412 -86.16444917 45.90905976 -80 46 C-82.97 45.505 -82.97 45.505 -86 45 C-86 44.67 -86 44.34 -86 44 C-56.30928508 44.96145485 -56.30928508 44.96145485 -43.34472656 45.69506836 C-38.55472776 45.95829585 -33.79755462 46.03794676 -29 46 C-28.67 44.35 -28.34 42.7 -28 41 C-27.67 41 -27.34 41 -27 41 C-27 43.64 -27 46.28 -27 49 C-32.25432063 51.45946923 -37.30860098 52.90301833 -43 54 C-40.68737828 55.15631086 -39.16702438 55.19875629 -36.58984375 55.31640625 C-35.68041016 55.35830078 -34.77097656 55.40019531 -33.83398438 55.44335938 C-32.40022461 55.50233398 -32.40022461 55.50233398 -30.9375 55.5625 C-30.03966797 55.60568359 -29.14183594 55.64886719 -28.21679688 55.69335938 C-19.4574517 56.07631479 -10.7939215 56 -2 56 C-1.34 37.52 -0.68 19.04 0 0 Z " fill="#482914" transform="translate(967,274)"/>
<path d="M0 0 C7.20637803 -0.12265327 14.21960102 0.18078508 21.37890625 0.98828125 C22.33678543 1.09114944 23.29466461 1.19401764 24.28157043 1.30000305 C26.32174067 1.51941081 28.36164965 1.74125985 30.40130615 1.96539307 C35.78050355 2.5560423 41.16168249 3.12796037 46.54296875 3.69921875 C48.14848602 3.87003967 48.14848602 3.87003967 49.78643799 4.04431152 C58.97399858 5.01409295 68.16917223 5.85080482 77.375 6.625 C88.43195489 7.55741571 99.44771463 8.68075928 110.46362305 10.01391602 C117.08842844 10.80923313 123.67156503 11.35285419 130.33203125 11.75 C133.77056081 12.07220482 136.75492658 12.84104521 140 14 C140 15.98 140 17.96 140 20 C139.34 19.67 138.68 19.34 138 19 C138 18.34 138 17.68 138 17 C131.28071591 15.05473078 124.77798701 14.45293938 117.8125 14 C115.49990293 13.83468564 113.18740362 13.66799859 110.875 13.5 C109.14830078 13.37625 109.14830078 13.37625 107.38671875 13.25 C102.35760387 12.87876199 97.33454242 12.45642582 92.3125 12 C91.47114502 11.92910156 90.62979004 11.85820313 89.76293945 11.78515625 C86.26429455 11.4605287 83.13889097 11.04116528 79.7578125 10.0390625 C74.10713296 8.47660849 68.38372022 7.98024911 62.5625 7.375 C61.32016602 7.24311279 60.07783203 7.11122559 58.79785156 6.9753418 C49.82101165 6.07052219 41.01620406 5.62199144 32 6 C32 5.34 32 4.68 32 4 C21.30627252 3.20365859 10.7233978 2.90208792 0 3 C-1.87326976 15.03666209 -3.11567587 27.11893213 -4.34765625 39.234375 C-4.56636626 41.36519782 -4.78531906 43.49599573 -5.00450134 45.62677002 C-5.57701293 51.198908 -6.14619243 56.77138137 -6.71466064 62.34393311 C-7.29271107 68.00424261 -7.87406925 73.6642123 -8.45507812 79.32421875 C-9.30513972 87.61018082 -10.15403116 95.89626113 -11.00024414 104.18261719 C-11.08701416 105.03169144 -11.17378418 105.88076569 -11.26318359 106.75556946 C-11.34580948 107.56525681 -11.42843536 108.37494415 -11.51356506 109.20916748 C-11.59410189 109.99012535 -11.67463871 110.77108322 -11.75761604 111.57570648 C-11.9303653 113.30352262 -12.09313029 115.03234926 -12.2491436 116.7617569 C-12.33192118 117.66161064 -12.41469875 118.56146439 -12.49998474 119.48858643 C-12.57217444 120.30492176 -12.64436415 121.1212571 -12.71874142 121.96232986 C-13 124 -13 124 -14 126 C-14.66 126 -15.32 126 -16 126 C-14.76607609 109.75323826 -13.31252213 93.54459798 -11.6171875 77.33984375 C-11.39558993 75.200837 -11.17425142 73.06180341 -10.95315552 70.92274475 C-10.380346 65.38751886 -9.80410299 59.85265607 -9.22705078 54.31787109 C-8.6348984 48.63205842 -8.04612276 42.9458961 -7.45703125 37.25976562 C-6.30792242 26.17283965 -5.15517246 15.08629572 -4 4 C-3.34 4 -2.68 4 -2 4 C-1.34 2.68 -0.68 1.36 0 0 Z " fill="#BDBCA9" transform="translate(1032,36)"/>
<path d="M0 0 C1.23093636 0.00033989 1.23093636 0.00033989 2.48674011 0.00068665 C3.36808121 0.0161705 4.2494223 0.03165436 5.1574707 0.04760742 C6.5161602 0.05397469 6.5161602 0.05397469 7.90229797 0.06047058 C10.79625128 0.07726769 13.68950902 0.11492167 16.58325195 0.15307617 C18.54483044 0.16812168 20.50641984 0.18181032 22.46801758 0.1940918 C27.27753051 0.2271746 32.08652329 0.27896395 36.89575195 0.34057617 C36.89575195 1.00057617 36.89575195 1.66057617 36.89575195 2.34057617 C17.09575195 1.84557617 17.09575195 1.84557617 -3.10424805 1.34057617 C-3.22541992 4.74241211 -3.3465918 8.14424805 -3.47143555 11.64916992 C-3.86553629 22.68073478 -4.26928202 33.71193014 -4.67791748 44.7429657 C-4.95552162 52.24912412 -5.22531176 59.75549967 -5.48806763 67.26219177 C-5.64806321 71.77878868 -5.81579841 76.29507408 -5.98565674 80.81130981 C-6.06456026 82.95155261 -6.14021636 85.09191765 -6.21258545 87.23239136 C-6.31378442 90.21024543 -6.42637564 93.18746115 -6.54174805 96.16479492 C-6.56882843 97.04145813 -6.59590881 97.91812134 -6.62380981 98.8213501 C-6.65731537 99.62651062 -6.69082092 100.43167114 -6.7253418 101.26123047 C-6.75039795 101.95693649 -6.7754541 102.65264252 -6.80126953 103.36943054 C-7.15920084 105.69809316 -7.88095473 107.33284364 -9.10424805 109.34057617 C-10.09424805 109.83557617 -10.09424805 109.83557617 -11.10424805 110.34057617 C-11.36292274 87.75710936 -10.82750982 65.30009812 -9.56005859 42.75146484 C-9.3288188 38.62819304 -9.11961458 34.50409066 -8.91524792 30.37941074 C-8.75258409 27.15590397 -8.57702174 23.93319861 -8.3976078 20.71058464 C-8.31465217 19.18657765 -8.23611986 17.66232284 -8.16222191 16.13784981 C-8.05892686 14.03848568 -7.93784221 11.94089051 -7.81201172 9.84277344 C-7.74761398 8.65514908 -7.68321625 7.46752472 -7.61686707 6.24391174 C-7.10424805 3.34057617 -7.10424805 3.34057617 -5.81652832 1.45547485 C-3.70840951 0.08283807 -2.5058676 -0.02313109 0 0 Z " fill="#858473" transform="translate(979.104248046875,161.659423828125)"/>
<path d="M0 0 C3.09672589 0.24624835 6.19493867 0.45705708 9.29443359 0.66552734 C50.42252157 3.47552093 50.42252157 3.47552093 66.72021484 13.21630859 C66.72021484 14.20630859 66.72021484 15.19630859 66.72021484 16.21630859 C65.73021484 15.22630859 65.73021484 15.22630859 64.72021484 14.21630859 C62.20983568 13.6770643 59.76093147 13.24851438 57.22412109 12.88427734 C56.07133667 12.70892456 56.07133667 12.70892456 54.89526367 12.5300293 C52.35889493 12.14648332 49.82091997 11.77499099 47.28271484 11.40380859 C45.52668607 11.14113138 43.77074604 10.87786021 42.01489258 10.61401367 C36.58523533 9.80162827 31.15307474 9.00695554 25.72021484 8.21630859 C24.86169922 8.0911084 24.00318359 7.9659082 23.11865234 7.83691406 C13.41772444 6.42312676 3.71629362 5.00959596 -5.99633789 3.67822266 C-7.91872374 3.40778218 -9.83914365 3.12066155 -11.75268555 2.79345703 C-16.57947087 2.00517317 -20.18317471 2.68240137 -24.84228516 4.09130859 C-29.6945542 5.53537617 -34.27049355 6.61029391 -39.27978516 7.21630859 C-35.44315672 3.37968016 -29.40205462 2.64890679 -24.27978516 1.21630859 C-23.45994141 0.97267578 -22.64009766 0.72904297 -21.79541016 0.47802734 C-14.54861386 -1.35866068 -7.36566647 -0.6068263 0 0 Z " fill="#542A09" transform="translate(854.27978515625,174.78369140625)"/>
<path d="M0 0 C0.33 0.66 0.66 1.32 1 2 C1.66 2 2.32 2 3 2 C3 1.34 3 0.68 3 0 C4.65 0 6.3 0 8 0 C8 0.66 8 1.32 8 2 C6.02 2.33 4.04 2.66 2 3 C2.33 5.97 2.66 8.94 3 12 C4.8871875 12.433125 4.8871875 12.433125 6.8125 12.875 C9.8539399 13.57303539 11.30669878 14.20446585 14 16 C14 16.66 14 17.32 14 18 C15.32 18 16.64 18 18 18 C18 17.34 18 16.68 18 16 C17.34 15.67 16.68 15.34 16 15 C17.9375 15.375 17.9375 15.375 20 16 C20.33 16.66 20.66 17.32 21 18 C21.66 18 22.32 18 23 18 C22.67 18.99 22.34 19.98 22 21 C21.34 21 20.68 21 20 21 C20.33 21.99 20.66 22.98 21 24 C20.01 24.33 19.02 24.66 18 25 C17.34 24.67 16.68 24.34 16 24 C15.34 24.99 14.68 25.98 14 27 C14 25.68 14 24.36 14 23 C12.35 23.66 10.7 24.32 9 25 C9.66 25.33 10.32 25.66 11 26 C8.22899606 27.38550197 6.0665294 27.1877467 3 27 C2.01 26.34 1.02 25.68 0 25 C-2.33199388 24.92094936 -4.66832622 24.91201231 -7 25 C-7.25 21.6875 -7.25 21.6875 -7 18 C-5 16.0625 -5 16.0625 -3 15 C-3.66 14.01 -4.32 13.02 -5 12 C-4.875 8.4375 -4.875 8.4375 -4 5 C-1.9375 3.5625 -1.9375 3.5625 0 3 C0 2.01 0 1.02 0 0 Z " fill="#473823" transform="translate(855,400)"/>
<path d="M0 0 C-1.32 0.33 -2.64 0.66 -4 1 C-4.04898438 2.26714844 -4.09796875 3.53429687 -4.1484375 4.83984375 C-4.22354191 6.53908096 -4.29908632 8.23829876 -4.375 9.9375 C-4.42140625 11.18370117 -4.42140625 11.18370117 -4.46875 12.45507812 C-4.73617703 18.18247369 -5.61822587 23.43358471 -7 29 C-8.32 29 -9.64 29 -11 29 C-10.98731079 29.9896727 -10.97462158 30.9793454 -10.96154785 31.99900818 C-10.86119058 43.52806566 -11.39146703 54.96793431 -12.09375 66.47265625 C-12.20628627 68.37647478 -12.31837911 70.28031957 -12.43005371 72.18418884 C-12.72157775 77.13427194 -13.0190213 82.08398117 -13.31781006 87.03363037 C-13.62308677 92.10879184 -13.92261056 97.18429269 -14.22265625 102.25976562 C-14.80955701 112.17351247 -15.40272823 122.08687294 -16 132 C-16.33 132 -16.66 132 -17 132 C-17.14197943 118.86303151 -16.740992 105.83779483 -15.94140625 92.7265625 C-15.83131446 90.85999792 -15.72161699 88.99341004 -15.61228943 87.12680054 C-15.38458998 83.25944626 -15.15314486 79.39234179 -14.91870117 75.52539062 C-14.61876541 70.57532064 -14.32704806 65.62480695 -14.03788853 60.67409706 C-13.81325886 56.83924166 -13.58509906 53.0046029 -13.35578728 49.17002487 C-13.24682878 47.34325989 -13.13879206 45.51643967 -13.03170967 43.68956375 C-12.88212456 41.14910109 -12.72796103 38.60895723 -12.57250977 36.06884766 C-12.50777214 34.94836784 -12.50777214 34.94836784 -12.44172668 33.80525208 C-12.21107633 30.11754643 -11.74189122 26.61459166 -11 23 C-11.39938767 20.90178785 -11.39938767 20.90178785 -12 19 C-12 18.01 -12 17.02 -12 16 C-12.20625 14.700625 -12.4125 13.40125 -12.625 12.0625 C-12.93035773 9.60616649 -13.04327929 8.15580543 -12.375 5.75 C-9.07538511 1.55049014 -5.40743282 -1.80247761 0 0 Z " fill="#5D655C" transform="translate(853,324)"/>
<path d="M0 0 C0.99 0 1.98 0 3 0 C-0.06397254 33.21591583 -3.47622801 66.39453258 -6.92166138 99.5725708 C-7.04894623 100.79901306 -7.17623108 102.02545532 -7.30737305 103.2890625 C-7.42712494 104.43536133 -7.54687683 105.58166016 -7.67025757 106.76269531 C-7.88335214 108.85478897 -8.08699958 110.94787611 -8.27920532 113.04199219 C-8.36213837 113.94336914 -8.44507141 114.84474609 -8.53051758 115.7734375 C-8.5982991 116.54864746 -8.66608063 117.32385742 -8.73591614 118.12255859 C-9 120 -9 120 -10 122 C-10.66 122 -11.32 122 -12 122 C-10.76607609 105.75323826 -9.31252213 89.54459798 -7.6171875 73.33984375 C-7.39558993 71.200837 -7.17425142 69.06180341 -6.95315552 66.92274475 C-6.380346 61.38751886 -5.80410299 55.85265607 -5.22705078 50.31787109 C-4.6348984 44.63205842 -4.04612276 38.9458961 -3.45703125 33.25976562 C-2.30792242 22.17283965 -1.15517246 11.08629572 0 0 Z " fill="#6F644E" transform="translate(1028,40)"/>
<path d="M0 0 C2.47501493 2.19376324 4.5145793 4.02915861 6 7 C3.39417629 7.93065133 2.35801776 8.14917407 -0.25 7.0625 C-0.8275 6.711875 -1.405 6.36125 -2 6 C-2.33 6.99 -2.66 7.98 -3 9 C-6.24484731 11.28341107 -9.12459955 11.17615457 -13 11 C-11.68 11.99 -10.36 12.98 -9 14 C-9.33 14.66 -9.66 15.32 -10 16 C-9.34 16 -8.68 16 -8 16 C-7.67 16.99 -7.34 17.98 -7 19 C-8.98 19.99 -8.98 19.99 -11 21 C-11.33 20.67 -11.66 20.34 -12 20 C-12.33 20.66 -12.66 21.32 -13 22 C-12.01 22.66 -11.02 23.32 -10 24 C-10 24.66 -10 25.32 -10 26 C-10.78375 26.12375 -11.5675 26.2475 -12.375 26.375 C-15.14057822 26.79117993 -15.14057822 26.79117993 -17 29 C-17.66 28.67 -18.32 28.34 -19 28 C-18.34 26.35 -17.68 24.7 -17 23 C-17.66 23 -18.32 23 -19 23 C-19 23.66 -19 24.32 -19 25 C-20.32 24.67 -21.64 24.34 -23 24 C-23 23.34 -23 22.68 -23 22 C-21.35 21.67 -19.7 21.34 -18 21 C-18.66 20.566875 -19.32 20.13375 -20 19.6875 C-20.66 19.130625 -21.32 18.57375 -22 18 C-22 17.01 -22 16.02 -22 15 C-22.66 15 -23.32 15 -24 15 C-24 14.34 -24 13.68 -24 13 C-23.360625 13.185625 -22.72125 13.37125 -22.0625 13.5625 C-21.0415625 13.7790625 -21.0415625 13.7790625 -20 14 C-19.67 13.67 -19.34 13.34 -19 13 C-18.34 13 -17.68 13 -17 13 C-16.67 12.01 -16.34 11.02 -16 10 C-14.66666667 9 -13.33333333 8 -12 7 C-11.67 6.01 -11.34 5.02 -11 4 C-9.68 4 -8.36 4 -7 4 C-7 2.68 -7 1.36 -7 0 C-4.19664415 -1.40167793 -2.9650644 -0.96536981 0 0 Z " fill="#725A3B" transform="translate(1065,372)"/>
<path d="M0 0 C0.99 0.66 1.98 1.32 3 2 C3 2.66 3 3.32 3 4 C2.34 4 1.68 4 1 4 C2.3089572 7.12197478 2.3089572 7.12197478 5 9 C5.66 8.34 6.32 7.68 7 7 C7.99 7.99 8.98 8.98 10 10 C9.34 8.68 8.68 7.36 8 6 C8.66 5.67 9.32 5.34 10 5 C10.12375 5.639375 10.2475 6.27875 10.375 6.9375 C10.58125 7.618125 10.7875 8.29875 11 9 C11.66 9.33 12.32 9.66 13 10 C12.34 11.32 11.68 12.64 11 14 C12.32 15.65 13.64 17.3 15 19 C13.0625 19.5625 13.0625 19.5625 11 20 C10.67 19.67 10.34 19.34 10 19 C9.67 19.66 9.34 20.32 9 21 C6.69 20.34 4.38 19.68 2 19 C2 19.66 2 20.32 2 21 C2.61875 21.12375 3.2375 21.2475 3.875 21.375 C6 22 6 22 8 24 C7.38511719 23.96519531 6.77023437 23.93039062 6.13671875 23.89453125 C5.32847656 23.86746094 4.52023437 23.84039062 3.6875 23.8125 C2.88699219 23.77769531 2.08648438 23.74289062 1.26171875 23.70703125 C-1.47851584 24.06198392 -2.29171079 24.89366282 -4 27 C-4 26.01 -4 25.02 -4 24 C-4.99 23.34 -5.98 22.68 -7 22 C-7 20.68 -7 19.36 -7 18 C-6.34 18 -5.68 18 -5 18 C-4.67 19.32 -4.34 20.64 -4 22 C-3.34 22 -2.68 22 -2 22 C-2.33 21.01 -2.66 20.02 -3 19 C-2.01 18.34 -1.02 17.68 0 17 C-0.495 16.54625 -0.99 16.0925 -1.5 15.625 C-3 14 -3 14 -3 12 C-3.66 12 -4.32 12 -5 12 C-5 11.34 -5 10.68 -5 10 C-3.35 9.34 -1.7 8.68 0 8 C0 7.01 0 6.02 0 5 C-2.64 5 -5.28 5 -8 5 C-8 4.34 -8 3.68 -8 3 C-5.69 3.33 -3.38 3.66 -1 4 C-1 3.34 -1 2.68 -1 2 C-1.66 1.67 -2.32 1.34 -3 1 C-2.01 0.67 -1.02 0.34 0 0 Z " fill="#7E6441" transform="translate(1026,408)"/>
<path d="M0 0 C0.79945038 -0.00095673 1.59890076 -0.00191345 2.4225769 -0.00289917 C4.11895832 -0.00358059 5.81534233 -0.00172896 7.51171875 0.00244141 C10.0859987 0.00774821 12.6601008 0.00251708 15.234375 -0.00390625 C16.88541705 -0.00324464 18.53645899 -0.00196176 20.1875 0 C20.94926544 -0.00202423 21.71103088 -0.00404846 22.49588013 -0.00613403 C27.4089781 0.01497364 32.12713417 0.43937886 36.9921875 1.1328125 C36.9921875 2.1228125 36.9921875 3.1128125 36.9921875 4.1328125 C20.1621875 4.1328125 3.3321875 4.1328125 -14.0078125 4.1328125 C-8.82672122 0.24699404 -6.25886223 -0.0163706 0 0 Z " fill="#270C00" transform="translate(864.0078125,322.8671875)"/>
<path d="M0 0 C3.09672589 0.24624835 6.19493867 0.45705708 9.29443359 0.66552734 C50.42252157 3.47552093 50.42252157 3.47552093 66.72021484 13.21630859 C66.72021484 14.20630859 66.72021484 15.19630859 66.72021484 16.21630859 C65.73021484 15.22630859 65.73021484 15.22630859 64.72021484 14.21630859 C62.06301647 13.53452862 62.06301647 13.53452862 59.09521484 13.09130859 C58.09232422 12.92373047 57.08943359 12.75615234 56.05615234 12.58349609 C55.28529297 12.46232422 54.51443359 12.34115234 53.72021484 12.21630859 C53.22521484 10.23630859 53.22521484 10.23630859 52.72021484 8.21630859 C43.46228742 6.015994 34.57732921 4.83071241 25.06860352 4.50756836 C24.30008057 4.48106201 23.53155762 4.45455566 22.73974609 4.42724609 C22.06016846 4.40968262 21.38059082 4.39211914 20.68041992 4.37402344 C18.60107519 4.20672281 16.73567324 3.74235591 14.72021484 3.21630859 C9.73086848 2.70279264 4.72916841 2.44870034 -0.27978516 2.21630859 C-1.32900146 2.16313477 -1.32900146 2.16313477 -2.39941406 2.10888672 C-11.81891207 1.68339199 -19.88998645 2.44041345 -28.91259766 5.24365234 C-32.36568832 6.24112285 -35.71559555 6.78552232 -39.27978516 7.21630859 C-35.44315672 3.37968016 -29.40205462 2.64890679 -24.27978516 1.21630859 C-23.45994141 0.97267578 -22.64009766 0.72904297 -21.79541016 0.47802734 C-14.54861386 -1.35866068 -7.36566647 -0.6068263 0 0 Z " fill="#A1A398" transform="translate(854.27978515625,174.78369140625)"/>
<path d="M0 0 C-12.08567883 3.72974289 -24.19505643 7.36610233 -36.3482666 10.86975098 C-38.31605943 11.43852883 -40.28272878 12.01102667 -42.24902344 12.58496094 C-43.22437042 12.86959198 -43.22437042 12.86959198 -44.21942139 13.15997314 C-45.52939268 13.54230032 -46.83932932 13.92474624 -48.14923096 14.30731201 C-51.39019792 15.25105619 -54.6341203 16.18107682 -57.88671875 17.08398438 C-61.53476732 18.09816437 -65.17373197 19.14059829 -68.8125 20.1875 C-69.9156958 20.48390381 -71.0188916 20.78030762 -72.15551758 21.08569336 C-74.91888032 21.89597614 -77.44840447 22.66525546 -80 24 C-81.84836209 27.04235292 -81.84836209 27.04235292 -82 30 C-82.33 30 -82.66 30 -83 30 C-83.36832888 24.47506673 -83.36832888 24.47506673 -81.7590332 22.39941406 C-79.75432698 20.8045527 -78.11541864 20.16638169 -75.66796875 19.421875 C-74.79930176 19.15189697 -73.93063477 18.88191895 -73.03564453 18.60375977 C-72.09575684 18.32201904 -71.15586914 18.04027832 -70.1875 17.75 C-68.16778584 17.12950131 -66.14825928 16.50839169 -64.12890625 15.88671875 C-62.58614014 15.41564697 -62.58614014 15.41564697 -61.01220703 14.93505859 C-58.25500928 14.07916077 -55.51482517 13.18621802 -52.77734375 12.26953125 C-41.59058194 8.54380413 -30.2976624 5.40450841 -18.875 2.5 C-18.16369934 2.31615753 -17.45239868 2.13231506 -16.71954346 1.94290161 C-14.68789315 1.42020746 -12.65334573 0.91106068 -10.6171875 0.40625 C-9.43753418 0.11041016 -8.25788086 -0.18542969 -7.04248047 -0.49023438 C-4.20019083 -0.96645816 -2.66239903 -0.98662002 0 0 Z " fill="#A4A793" transform="translate(815,183)"/>
<path d="M0 0 C0.66 0.99 1.32 1.98 2 3 C2.66 2.67 3.32 2.34 4 2 C4.02953103 5.60414885 4.04697407 9.20826576 4.0625 12.8125 C4.07087891 13.81732422 4.07925781 14.82214844 4.08789062 15.85742188 C4.10966319 22.62868824 3.7369831 29.26910926 3 36 C2.34 36 1.68 36 1 36 C0.67 43.26 0.34 50.52 0 58 C-13.05881132 58.08705874 -25.97352537 57.89069912 -39 57 C-39 56.67 -39 56.34 -39 56 C-26.79 56 -14.58 56 -2 56 C-1.34 37.52 -0.68 19.04 0 0 Z " fill="#7B7D6F" transform="translate(967,274)"/>
<path d="M0 0 C0.72703125 0.0721875 1.4540625 0.144375 2.203125 0.21875 C3.71132812 0.35796875 3.71132812 0.35796875 5.25 0.5 C6.22453125 0.5928125 7.1990625 0.685625 8.203125 0.78125 C11.29066437 0.95913293 14.28327237 0.98586896 17.37109375 0.9453125 C24.49365937 0.91652551 31.53594734 1.51076157 38.61987305 2.171875 C40.82594708 2.37624574 43.03291122 2.56746291 45.24023438 2.7578125 C46.66673814 2.88723548 48.09317334 3.01741683 49.51953125 3.1484375 C51.42375854 3.32125244 51.42375854 3.32125244 53.36645508 3.49755859 C57.10438852 4.01443469 60.40661107 4.87809659 64 6 C64 7.98 64 9.96 64 12 C63.34 11.67 62.68 11.34 62 11 C62 10.34 62 9.68 62 9 C55.28071591 7.05473078 48.77798701 6.45293938 41.8125 6 C39.49990293 5.83468564 37.18740362 5.66799859 34.875 5.5 C33.72386719 5.4175 32.57273437 5.335 31.38671875 5.25 C26.35760387 4.87876199 21.33454242 4.45642582 16.3125 4 C15.47114502 3.92910156 14.62979004 3.85820313 13.76293945 3.78515625 C8.94625541 3.33823227 4.6081297 2.4805236 0 1 C0 0.67 0 0.34 0 0 Z " fill="#A08F72" transform="translate(1108,44)"/>
<path d="M0 0 C0.33 0 0.66 0 1 0 C1.12462717 14.09276087 0.82558084 28.14269601 0.25537109 42.22412109 C0.12295178 45.55146637 0.00475635 48.87914824 -0.11328125 52.20703125 C-0.19705548 54.33597156 -0.28165881 56.46487945 -0.3671875 58.59375 C-0.40061249 59.58217896 -0.43403748 60.57060791 -0.46847534 61.58898926 C-0.528311 62.96323059 -0.528311 62.96323059 -0.58935547 64.36523438 C-0.63598831 65.56714417 -0.63598831 65.56714417 -0.68356323 66.79333496 C-1.02954815 69.20605342 -1.7997792 70.89315706 -3 73 C-4.21177119 69.36468644 -4.191114 66.03667284 -4.1875 62.25 C-4.18741943 61.45029785 -4.18733887 60.6505957 -4.18725586 59.82666016 C-4.11278765 51.32787787 -3.60039764 42.8543401 -3.0625 34.375 C-3.01902435 33.67121216 -2.97554871 32.96742432 -2.93075562 32.24230957 C-2.80470488 30.23147921 -2.67011182 28.22118986 -2.53515625 26.2109375 C-2.456604 25.03837402 -2.37805176 23.86581055 -2.29711914 22.65771484 C-2 20 -2 20 -1 19 C-0.84379445 17.58672053 -0.74943827 16.1664541 -0.68359375 14.74609375 C-0.64169922 13.89208984 -0.59980469 13.03808594 -0.55664062 12.15820312 C-0.51732422 11.26037109 -0.47800781 10.36253906 -0.4375 9.4375 C-0.39431641 8.53580078 -0.35113281 7.63410156 -0.30664062 6.70507812 C-0.20021858 4.47021515 -0.09820012 2.23523692 0 0 Z " fill="#6B5432" transform="translate(973,198)"/>
<path d="M0 0 C0.99 0 1.98 0 3 0 C3 0.66 3 1.32 3 2 C2.01 2 1.02 2 0 2 C-0.433125 2.9590625 -0.433125 2.9590625 -0.875 3.9375 C-2 6 -2 6 -4 7 C-4.66 6.67 -5.32 6.34 -6 6 C-6 6.66 -6 7.32 -6 8 C-6.99 8.66 -7.98 9.32 -9 10 C-10.11785113 12.11785113 -10.11785113 12.11785113 -11 15 C-10.34 15 -9.68 15 -9 15 C-9 15.66 -9 16.32 -9 17 C-10.32 16.67 -11.64 16.34 -13 16 C-13.66 17.32 -14.32 18.64 -15 20 C-15.99 19.67 -16.98 19.34 -18 19 C-18 19.66 -18 20.32 -18 21 C-17.01 21 -16.02 21 -15 21 C-15.33 21.99 -15.66 22.98 -16 24 C-16.99 24.33 -17.98 24.66 -19 25 C-19.33 25.66 -19.66 26.32 -20 27 C-21.65 27 -23.3 27 -25 27 C-24 24 -24 24 -22 22 C-22.66 22 -23.32 22 -24 22 C-23.25 20.0625 -23.25 20.0625 -22 18 C-19.875 17.25 -19.875 17.25 -18 17 C-19.32 16.34 -20.64 15.68 -22 15 C-21.360625 14.71125 -20.72125 14.4225 -20.0625 14.125 C-17.84793921 13.17176549 -17.84793921 13.17176549 -17 11 C-16.34 11 -15.68 11 -15 11 C-15 10.34 -15 9.68 -15 9 C-14.236875 8.731875 -13.47375 8.46375 -12.6875 8.1875 C-9.99501525 7.21086251 -9.99501525 7.21086251 -8.5 5.375 C-7 4 -7 4 -4.3125 3.8125 C-3.549375 3.874375 -2.78625 3.93625 -2 4 C-1.34 2.68 -0.68 1.36 0 0 Z " fill="#5B482E" transform="translate(1093,348)"/>
<path d="M0 0 C5.99998809 -0.02976185 11.999951 -0.0499537 18 -0.0625 C19.3310527 -0.0654155 19.3310527 -0.0654155 20.68899536 -0.06838989 C32.3933491 -0.08630167 44.05313864 0.02464014 55.74023438 0.73217773 C59.78212786 0.96031241 63.38720428 1.00302434 67.37890625 0.27734375 C68.57386719 0.18582031 69.76882813 0.09429687 71 0 C73.22631836 1.98266602 73.22631836 1.98266602 75 4 C65.10946089 4.08242797 55.28961858 3.86868896 45.41015625 3.34375 C44.09961777 3.27716187 42.78907928 3.21057373 41.43882751 3.14196777 C38.01114298 2.96776579 34.58370833 2.78906728 31.15631104 2.60931396 C27.63625217 2.42553826 24.11596835 2.24617797 20.59570312 2.06640625 C13.73024699 1.71517105 6.86504559 1.35916798 0 1 C0 0.67 0 0.34 0 0 Z " fill="#5D4637" transform="translate(853,327)"/>
<path d="M0 0 C0 0.66 0 1.32 0 2 C4.95 2.99 4.95 2.99 10 4 C10 4.33 10 4.66 10 5 C9.21125488 4.92998779 8.42250977 4.85997559 7.60986328 4.7878418 C-1.81934855 4.02533368 -11.18834307 3.81375766 -20.64453125 3.81469727 C-23.15641313 3.81247217 -25.66788061 3.79412456 -28.1796875 3.77539062 C-29.78906102 3.77246246 -31.39843659 3.77047381 -33.0078125 3.76953125 C-33.75257843 3.76234573 -34.49734436 3.75516022 -35.26467896 3.74775696 C-39.00223824 3.76429579 -41.82785035 3.91637355 -45 6 C-42.69 6.66 -40.38 7.32 -38 8 C-38 8.33 -38 8.66 -38 9 C-45.75 9.125 -45.75 9.125 -48 8 C-48 7.01 -48 6.02 -48 5 C-46.68 4.67 -45.36 4.34 -44 4 C-44 3.34 -44 2.68 -44 2 C-29.29796839 0.64593659 -14.76688688 -0.31681045 0 0 Z " fill="#3E250F" transform="translate(897,320)"/>
<path d="M0 0 C5.94 0 11.88 0 18 0 C18.33 0.66 18.66 1.32 19 2 C18.0625 4.125 18.0625 4.125 17 6 C17.33 6.33 17.66 6.66 18 7 C16 9 16 9 13.0625 9.25 C10 9 10 9 7 7 C4.66800612 6.92094936 2.33167378 6.91201231 0 7 C0 4.69 0 2.38 0 0 Z " fill="#6B5233" transform="translate(848,418)"/>
<path d="M0 0 C2.47501493 2.19376324 4.5145793 4.02915861 6 7 C3.39417629 7.93065133 2.35801776 8.14917407 -0.25 7.0625 C-0.8275 6.711875 -1.405 6.36125 -2 6 C-2.33 6.99 -2.66 7.98 -3 9 C-6.24484731 11.28341107 -9.12459955 11.17615457 -13 11 C-12.67 12.32 -12.34 13.64 -12 15 C-12.99 15.66 -13.98 16.32 -15 17 C-15.33 14.69 -15.66 12.38 -16 10 C-15.360625 9.566875 -14.72125 9.13375 -14.0625 8.6875 C-11.73253997 7.08760823 -11.73253997 7.08760823 -11 4 C-9.68 4 -8.36 4 -7 4 C-7 2.68 -7 1.36 -7 0 C-4.19664415 -1.40167793 -2.9650644 -0.96536981 0 0 Z " fill="#4C3C27" transform="translate(1065,372)"/>
<path d="M0 0 C3.87381781 0.12054806 7.74749661 0.24486856 11.62109375 0.37231445 C13.56764815 0.43563439 15.5142922 0.49617965 17.4609375 0.55664062 C25.99619519 0.83969764 34.48688358 1.32834561 43 2 C43 2.66 43 3.32 43 4 C39.93061807 5.79496789 37.87500877 6.21555387 34.33984375 6.01171875 C33.0259668 5.94114258 33.0259668 5.94114258 31.68554688 5.86914062 C30.32526367 5.77922852 30.32526367 5.77922852 28.9375 5.6875 C28.02677734 5.63916016 27.11605469 5.59082031 26.17773438 5.54101562 C19.44763532 5.14921177 19.44763532 5.14921177 16 4 C16 3.34 16 2.68 16 2 C15.34773437 2.01160156 14.69546875 2.02320313 14.0234375 2.03515625 C9.2238086 2.08470994 4.72215315 1.99413751 0 1 C0 0.67 0 0.34 0 0 Z " fill="#502B0D" transform="translate(881,318)"/>
<path d="M0 0 C4.50278648 0.40436445 9.00511338 0.81341486 13.50708008 1.22680664 C15.03853836 1.3667673 16.57011414 1.50544854 18.10180664 1.64282227 C20.30387017 1.84054402 22.50546966 2.04286857 24.70703125 2.24609375 C25.39150833 2.3065538 26.07598541 2.36701385 26.78120422 2.42930603 C29.69843026 2.70254869 32.20693768 3.06897923 35 4 C31.08711593 6.70571771 27.01439499 6.07900888 22.5 5.75 C21.70352051 5.6991626 20.90704102 5.6483252 20.08642578 5.59594727 C13.64873906 5.14371307 7.32821782 4.27805183 1 3 C0.67 2.01 0.34 1.02 0 0 Z " fill="#766E5E" transform="translate(1122,191)"/>
<path d="M0 0 C0.28875 0.639375 0.5775 1.27875 0.875 1.9375 C1.82823451 4.15206079 1.82823451 4.15206079 4 5 C3.34 6.32 2.68 7.64 2 9 C3.32 10.65 4.64 12.3 6 14 C4.0625 14.5625 4.0625 14.5625 2 15 C1.67 14.67 1.34 14.34 1 14 C0.67 14.66 0.34 15.32 0 16 C-2.31 15.34 -4.62 14.68 -7 14 C-6.67 13.34 -6.34 12.68 -6 12 C-5.34 12.33 -4.68 12.66 -4 13 C-4 12.34 -4 11.68 -4 11 C-4.66 10.67 -5.32 10.34 -6 10 C-4.35 9.01 -2.7 8.02 -1 7 C-1.99 6.34 -2.98 5.68 -4 5 C-3.34 4.01 -2.68 3.02 -2 2 C-1.01 2.99 -0.02 3.98 1 5 C0.34 3.68 -0.32 2.36 -1 1 C-0.67 0.67 -0.34 0.34 0 0 Z " fill="#5E492D" transform="translate(1035,413)"/>
<path d="M0 0 C2.475 0.99 2.475 0.99 5 2 C5.33 1.34 5.66 0.68 6 0 C6.99 0.66 7.98 1.32 9 2 C9.66 1.67 10.32 1.34 11 1 C12.54613014 1.08651631 14.08909387 1.24002636 15.625 1.4375 C16.85089844 1.59025391 16.85089844 1.59025391 18.1015625 1.74609375 C19.04128906 1.87177734 19.04128906 1.87177734 20 2 C19.67 2.66 19.34 3.32 19 4 C19.66 4.33 20.32 4.66 21 5 C20.34 6.32 19.68 7.64 19 9 C18.01 8.67 17.02 8.34 16 8 C15.67 7.01 15.34 6.02 15 5 C13.329375 5.309375 13.329375 5.309375 11.625 5.625 C9.830625 5.810625 9.830625 5.810625 8 6 C7.34 5.34 6.68 4.68 6 4 C5.67 4.33 5.34 4.66 5 5 C3.33382885 5.04063832 1.66611905 5.042721 0 5 C-0.5625 3.0625 -0.5625 3.0625 -1 1 C-0.67 0.67 -0.34 0.34 0 0 Z " fill="#9B7A51" transform="translate(894,427)"/>
<path d="M0 0 C0.33 0 0.66 0 1 0 C2.05960821 6.0779127 2.18341679 12.02593322 2.1875 18.1875 C2.19974609 19.17169922 2.21199219 20.15589844 2.22460938 21.16992188 C2.22654297 22.11802734 2.22847656 23.06613281 2.23046875 24.04296875 C2.23457764 24.89914795 2.23868652 25.75532715 2.24291992 26.63745117 C1.98163737 29.17858811 1.27821859 30.80799919 0 33 C-0.90210244 30.29369267 -1.12839917 28.71663676 -1.1328125 25.9375 C-1.13474609 25.14512939 -1.13667969 24.35275879 -1.13867188 23.53637695 C-1.13416016 22.69937256 -1.12964844 21.86236816 -1.125 21 C-1.12209961 19.72419067 -1.12209961 19.72419067 -1.11914062 18.42260742 C-1.07682159 12.2422652 -0.7722477 6.13661118 0 0 Z " fill="#745F3C" transform="translate(970,238)"/>
<path d="M0 0 C-0.62865967 0.19110352 -1.25731934 0.38220703 -1.9050293 0.57910156 C-3.77692166 1.14821985 -5.64874162 1.71757627 -7.52050781 2.28710938 C-9.63541193 2.9301237 -11.75064797 3.57204728 -13.86621094 4.21289062 C-20.60528485 6.25708584 -20.60528485 6.25708584 -27.31640625 8.390625 C-28.44949219 8.75671875 -29.58257813 9.1228125 -30.75 9.5 C-31.71421875 9.8196875 -32.6784375 10.139375 -33.671875 10.46875 C-36 11 -36 11 -39 10 C-36.34688247 6.54780997 -32.88551278 5.89925651 -28.84765625 4.921875 C-28.15111435 4.74617981 -27.45457245 4.57048462 -26.73692322 4.38946533 C-25.26641051 4.02140234 -23.79456694 3.65862145 -22.3215332 3.30078125 C-20.07036771 2.75191825 -17.82531823 2.18193705 -15.58007812 1.609375 C-14.14875445 1.25392957 -12.71712292 0.89972108 -11.28515625 0.546875 C-10.61525162 0.37613464 -9.94534698 0.20539429 -9.25514221 0.02947998 C-5.86724053 -0.77929502 -3.30586862 -1.27699429 0 0 Z " fill="#9EA297" transform="translate(815,183)"/>
<path d="M0 0 C2.31 0.33 4.62 0.66 7 1 C7 1.66 7 2.32 7 3 C6.34 3 5.68 3 5 3 C4.67 3.99 4.34 4.98 4 6 C4.61875 6.12375 5.2375 6.2475 5.875 6.375 C8 7 8 7 10 9 C9.38511719 8.96519531 8.77023437 8.93039062 8.13671875 8.89453125 C6.92435547 8.85392578 6.92435547 8.85392578 5.6875 8.8125 C4.88699219 8.77769531 4.08648438 8.74289062 3.26171875 8.70703125 C0.52148416 9.06198392 -0.29171079 9.89366282 -2 12 C-2 11.01 -2 10.02 -2 9 C-2.99 8.34 -3.98 7.68 -5 7 C-5 5.68 -5 4.36 -5 3 C-4.34 3 -3.68 3 -3 3 C-2.67 4.32 -2.34 5.64 -2 7 C-1.34 7 -0.68 7 0 7 C-0.33 6.01 -0.66 5.02 -1 4 C-0.01 3.34 0.98 2.68 2 2 C1.34 1.34 0.68 0.68 0 0 Z " fill="#7E633F" transform="translate(1024,423)"/>
<path d="M0 0 C0.33 0 0.66 0 1 0 C1.05868218 3.9791034 1.0938239 7.95809353 1.125 11.9375 C1.15013672 13.61295898 1.15013672 13.61295898 1.17578125 15.32226562 C1.21430039 21.88977896 0.70947839 27.65339322 -1 34 C-1.66 34 -2.32 34 -3 34 C-2.68986764 30.02064515 -2.37646009 26.04155453 -2.0625 22.0625 C-1.93198242 20.38704102 -1.93198242 20.38704102 -1.79882812 18.67773438 C-1.30462158 12.43608879 -0.73195727 6.21833969 0 0 Z " fill="#7A796B" transform="translate(1019,128)"/>
<path d="M0 0 C0.80824219 0.10183594 1.61648438 0.20367187 2.44921875 0.30859375 C3.06410156 0.39238281 3.67898438 0.47617187 4.3125 0.5625 C4.3125 1.2225 4.3125 1.8825 4.3125 2.5625 C3.3225 3.0575 3.3225 3.0575 2.3125 3.5625 C1.6525 4.2225 0.9925 4.8825 0.3125 5.5625 C-2.01025177 5.96297444 -4.34489357 6.3022104 -6.6875 6.5625 C-7.0175 5.2425 -7.3475 3.9225 -7.6875 2.5625 C-9.66286745 2.91036708 -9.66286745 2.91036708 -11.6875 3.5625 C-12.0175 4.2225 -12.3475 4.8825 -12.6875 5.5625 C-12.6875 4.5725 -12.6875 3.5825 -12.6875 2.5625 C-4.81688596 -0.62828947 -4.81688596 -0.62828947 0 0 Z " fill="#92744C" transform="translate(1011.6875,430.4375)"/>
<path d="M0 0 C1.3474649 0.98087518 2.68264158 1.97904722 4 3 C-7.37204047 3.15298709 -18.65019611 2.68416471 -30 2 C-30 1.67 -30 1.34 -30 1 C-16.3279472 -0.07533 -16.3279472 -0.07533 -11.375 0 C-8.159164 0.13642629 -8.159164 0.13642629 -5.75 -0.5625 C-3.4559111 -1.13602223 -2.20704082 -0.82764031 0 0 Z " fill="#5F574C" transform="translate(924,328)"/>
<path d="M0 0 C4.62 0 9.24 0 14 0 C14.33 0.66 14.66 1.32 15 2 C14.0625 4.125 14.0625 4.125 13 6 C13 5.34 13 4.68 13 4 C12.360625 4.20625 11.72125 4.4125 11.0625 4.625 C6.78747342 5.14847264 3.12654053 4.08782441 -1 3 C-0.67 2.01 -0.34 1.02 0 0 Z " fill="#876842" transform="translate(852,418)"/>
<path d="M0 0 C7.85879863 0.35224909 14.65062002 1.13498747 22 4 C22 4.66 22 5.32 22 6 C22.99 6.33 23.98 6.66 25 7 C21.7 7 18.4 7 15 7 C15 6.34 15 5.68 15 5 C10.05 3.68 5.1 2.36 0 1 C0 0.67 0 0.34 0 0 Z " fill="#5A330B" transform="translate(885,179)"/>
<path d="M0 0 C1.65 0.33 3.3 0.66 5 1 C4.67 1.99 4.34 2.98 4 4 C3.01 4 2.02 4 1 4 C0.80664062 5.03640625 0.61328125 6.0728125 0.4140625 7.140625 C0.15135133 8.51047609 -0.11168671 9.88026452 -0.375 11.25 C-0.50132812 11.93191406 -0.62765625 12.61382812 -0.7578125 13.31640625 C-1.43906367 16.82484976 -2.16853415 19.91039673 -4 23 C-4.39060381 15.18792377 -3.55072792 7.10145585 0 0 Z " fill="#524028" transform="translate(848,427)"/>
<path d="M0 0 C9.39355936 -0.14256667 18.64072209 0.27507668 28 1 C21.49255781 4.75429357 15.6726199 3.88322622 8.625 2.5625 C7.79355469 2.41490234 6.96210937 2.26730469 6.10546875 2.11523438 C4.06871149 1.75236383 2.03411537 1.37739876 0 1 C0 0.67 0 0.34 0 0 Z " fill="#5E3511" transform="translate(841,176)"/>
<path d="M0 0 C0 2.97 0 5.94 0 9 C-0.99 9.495 -0.99 9.495 -2 10 C-2.33 17.59 -2.66 25.18 -3 33 C-3.33 33 -3.66 33 -4 33 C-4.22630724 28.60489874 -4.42790777 24.2090006 -4.625 19.8125 C-4.68945312 18.56662109 -4.75390625 17.32074219 -4.8203125 16.03710938 C-4.89765625 14.2340332 -4.89765625 14.2340332 -4.9765625 12.39453125 C-5.02893066 11.28956299 -5.08129883 10.18459473 -5.13525391 9.04614258 C-4.99472174 5.88112471 -4.45820298 3.79978765 -3 1 C-1 0 -1 0 0 0 Z " fill="#322818" transform="translate(972,267)"/>
<path d="M0 0 C0.33 0.99 0.66 1.98 1 3 C1.66 3.33 2.32 3.66 3 4 C3.6875 5.9375 3.6875 5.9375 4 8 C3.67 8.66 3.34 9.32 3 10 C2.34 10 1.68 10 1 10 C1 9.34 1 8.68 1 8 C-0.32 8.33 -1.64 8.66 -3 9 C-3.99 7.68 -4.98 6.36 -6 5 C-5.01 4.67 -4.02 4.34 -3 4 C-3.33 3.34 -3.66 2.68 -4 2 C-2.68 1.34 -1.36 0.68 0 0 Z " fill="#745C3A" transform="translate(996,434)"/>
<path d="M0 0 C0.91007813 0.00902344 1.82015625 0.01804687 2.7578125 0.02734375 C3.45648437 0.03894531 4.15515625 0.05054688 4.875 0.0625 C4.875 0.3925 4.875 0.7225 4.875 1.0625 C2.235 1.3925 -0.405 1.7225 -3.125 2.0625 C4.135 2.3925 11.395 2.7225 18.875 3.0625 C18.875 3.3925 18.875 3.7225 18.875 4.0625 C8.975 4.0625 -0.925 4.0625 -11.125 4.0625 C-6.63575348 0.69556511 -5.36740149 -0.06881284 0 0 Z " fill="#2A1905" transform="translate(861.125,322.9375)"/>
<path d="M0 0 C0.33 0 0.66 0 1 0 C0.90577556 4.00224038 0.79953743 8.00397194 0.68261719 12.00561523 C0.64455921 13.36425263 0.60966779 14.72298285 0.578125 16.08178711 C0.53196786 18.04562919 0.47311503 20.00915963 0.4140625 21.97265625 C0.3826416 23.15093994 0.3512207 24.32922363 0.31884766 25.54321289 C-0.02748429 29.29797095 -0.85973584 32.41716997 -2 36 C-2.33 36 -2.66 36 -3 36 C-2.41346574 23.94517751 -1.35585596 11.99208527 0 0 Z " fill="#7F8D87" transform="translate(1025,70)"/>
<path d="M0 0 C0.33 0.66 0.66 1.32 1 2 C1.66 2 2.32 2 3 2 C3 1.34 3 0.68 3 0 C4.65 0 6.3 0 8 0 C8 0.66 8 1.32 8 2 C6.02 2.33 4.04 2.66 2 3 C2.33 6.3 2.66 9.6 3 13 C2.34 13 1.68 13 1 13 C1 11.35 1 9.7 1 8 C-0.65 7.67 -2.3 7.34 -4 7 C-3.34 5.68 -2.68 4.36 -2 3 C-1.34 3 -0.68 3 0 3 C0 2.01 0 1.02 0 0 Z " fill="#3D301E" transform="translate(855,400)"/>
<path d="M0 0 C3.465 1.485 3.465 1.485 7 3 C6.67 3.99 6.34 4.98 6 6 C5.01 6.33 4.02 6.66 3 7 C2.67 7.66 2.34 8.32 2 9 C0.35 9 -1.3 9 -3 9 C-2 6 -2 6 0 4 C-0.66 4 -1.32 4 -2 4 C-1.34 2.68 -0.68 1.36 0 0 Z " fill="#685234" transform="translate(1071,366)"/>
<path d="M0 0 C2.64 0.33 5.28 0.66 8 1 C8.33 3.31 8.66 5.62 9 8 C8.01 8 7.02 8 6 8 C5.67 8.66 5.34 9.32 5 10 C4.731875 9.38125 4.46375 8.7625 4.1875 8.125 C3.04443152 5.7004767 3.04443152 5.7004767 0 4 C1.65 4 3.3 4 5 4 C5 3.34 5 2.68 5 2 C3.68 2.33 2.36 2.66 1 3 C0.67 2.01 0.34 1.02 0 0 Z " fill="#715939" transform="translate(1036,405)"/>
<path d="M0 0 C0.99 0.33 1.98 0.66 3 1 C2.67 2.98 2.34 4.96 2 7 C0.68 7 -0.64 7 -2 7 C-1.67 8.32 -1.34 9.64 -1 11 C-1.99 11.66 -2.98 12.32 -4 13 C-4.33 10.69 -4.66 8.38 -5 6 C-4.360625 5.566875 -3.72125 5.13375 -3.0625 4.6875 C-0.73253997 3.08760823 -0.73253997 3.08760823 0 0 Z " fill="#4B3C27" transform="translate(1054,376)"/>
<path d="M0 0 C0.33 0.66 0.66 1.32 1 2 C1.66 2 2.32 2 3 2 C3 2.66 3 3.32 3 4 C2.34 4 1.68 4 1 4 C1 4.66 1 5.32 1 6 C2.32 6.33 3.64 6.66 5 7 C4.34 7.66 3.68 8.32 3 9 C0.4375 8.75 0.4375 8.75 -2 8 C-2.33 7.34 -2.66 6.68 -3 6 C-3.99 5.67 -4.98 5.34 -6 5 C-4.02 3.35 -2.04 1.7 0 0 Z " fill="#856943" transform="translate(1017,437)"/>
<path d="M0 0 C5.94074887 1.00332648 10.20186518 2.30912706 15 6 C14.67 6.66 14.34 7.32 14 8 C13.34 7.34 12.68 6.68 12 6 C9.34280163 5.31822002 9.34280163 5.31822002 6.375 4.875 C4.87066406 4.62363281 4.87066406 4.62363281 3.3359375 4.3671875 C2.56507813 4.24601563 1.79421875 4.12484375 1 4 C0.67 2.68 0.34 1.36 0 0 Z " fill="#7F6B50" transform="translate(907,183)"/>
<path d="M0 0 C1.485 0.99 1.485 0.99 3 2 C2.67 2.66 2.34 3.32 2 4 C3.65 4 5.3 4 7 4 C7 5.98 7 7.96 7 10 C1.25 8.375 1.25 8.375 -1 5 C-0.625 2.3125 -0.625 2.3125 0 0 Z " fill="#312718" transform="translate(1052,389)"/>
<path d="M0 0 C0.99 0.33 1.98 0.66 3 1 C2.67 1.66 2.34 2.32 2 3 C2.66 3 3.32 3 4 3 C4.33 3.99 4.66 4.98 5 6 C3.02 6.99 3.02 6.99 1 8 C0.67 7.67 0.34 7.34 0 7 C-0.66 7.66 -1.32 8.32 -2 9 C-3 6 -3 6 -1.5625 2.8125 C-1.046875 1.884375 -0.53125 0.95625 0 0 Z " fill="#5C492F" transform="translate(1053,385)"/>
<path d="M0 0 C-4.35664057 2.90442705 -9.07905419 5.44937628 -14.4375 4.625 C-14.953125 4.41875 -15.46875 4.2125 -16 4 C-15.01 4 -14.02 4 -13 4 C-13 3.34 -13 2.68 -13 2 C-11.5882217 1.46605821 -10.17029756 0.94834896 -8.75 0.4375 C-7.96109375 0.14746094 -7.1721875 -0.14257812 -6.359375 -0.44140625 C-3.80896548 -1.04522837 -2.44677771 -0.8473932 0 0 Z " fill="#ACA489" transform="translate(777,193)"/>
<path d="M0 0 C2.31309705 0.11341637 4.62550185 0.24103807 6.9375 0.375 C8.86916016 0.47941406 8.86916016 0.47941406 10.83984375 0.5859375 C12.40412109 0.79089844 12.40412109 0.79089844 14 1 C14.33 1.66 14.66 2.32 15 3 C12.36 3.33 9.72 3.66 7 4 C7 3.34 7 2.68 7 2 C4.69 2 2.38 2 0 2 C0 1.34 0 0.68 0 0 Z " fill="#9F9B85" transform="translate(1057,38)"/>
<path d="M0 0 C1.9375 0.375 1.9375 0.375 4 1 C4.33 1.66 4.66 2.32 5 3 C5.66 3 6.32 3 7 3 C6.67 3.99 6.34 4.98 6 6 C5.34 6 4.68 6 4 6 C4.33 6.99 4.66 7.98 5 9 C4.01 9.33 3.02 9.66 2 10 C1.34 9.34 0.68 8.68 0 8 C0.66 8 1.32 8 2 8 C2 6.68 2 5.36 2 4 C1.34 3.67 0.68 3.34 0 3 C0.66 3 1.32 3 2 3 C2 2.34 2 1.68 2 1 C1.34 0.67 0.68 0.34 0 0 Z " fill="#5F4A2F" transform="translate(871,415)"/>
<path d="M0 0 C1.50433594 0.01353516 1.50433594 0.01353516 3.0390625 0.02734375 C3.80992187 0.03894531 4.58078125 0.05054688 5.375 0.0625 C4.385 0.3925 3.395 0.7225 2.375 1.0625 C2.375 1.7225 2.375 2.3825 2.375 3.0625 C-0.925 3.0625 -4.225 3.0625 -7.625 3.0625 C-7.625 2.4025 -7.625 1.7425 -7.625 1.0625 C-4.98041621 -0.25979189 -2.94738699 -0.03427194 0 0 Z " fill="#634D30" transform="translate(861.625,414.9375)"/>
<path d="M0 0 C-2.79655447 1.45879493 -5.58256419 2.65385052 -8.5625 3.6875 C-9.32691406 3.95949219 -10.09132813 4.23148438 -10.87890625 4.51171875 C-13 5 -13 5 -16 4 C-11.84868392 -1.02527736 -5.98995915 -0.10152473 0 0 Z " fill="#9D9883" transform="translate(792,189)"/>
<path d="M0 0 C1.32 0.33 2.64 0.66 4 1 C3.67 2.98 3.34 4.96 3 7 C1.125 7.625 1.125 7.625 -1 8 C-1.66 7.34 -2.32 6.68 -3 6 C-2.34 6 -1.68 6 -1 6 C-0.67 4.02 -0.34 2.04 0 0 Z " fill="#382C1C" transform="translate(1013,432)"/>
<path d="M0 0 C0.66 0 1.32 0 2 0 C2 0.66 2 1.32 2 2 C3.32 2.33 4.64 2.66 6 3 C2.48812804 5.40814077 0.27343092 6.36629408 -4 6 C-4.33 5.34 -4.66 4.68 -5 4 C-4.0409375 3.8453125 -4.0409375 3.8453125 -3.0625 3.6875 C-2.381875 3.460625 -1.70125 3.23375 -1 3 C-0.67 2.01 -0.34 1.02 0 0 Z " fill="#8B6D45" transform="translate(1029,417)"/>
<path d="M0 0 C1.32 0.33 2.64 0.66 4 1 C3.67 1.66 3.34 2.32 3 3 C4.32 3 5.64 3 7 3 C7 3.66 7 4.32 7 5 C4.69 5.66 2.38 6.32 0 7 C0 4.69 0 2.38 0 0 Z " fill="#5D482D" transform="translate(848,418)"/>
<path d="M0 0 C0.94875 0.350625 1.8975 0.70125 2.875 1.0625 C2.875 2.7125 2.875 4.3625 2.875 6.0625 C1.885 6.5575 1.885 6.5575 0.875 7.0625 C0.215 6.7325 -0.445 6.4025 -1.125 6.0625 C-0.465 4.4125 0.195 2.7625 0.875 1.0625 C0.215 1.0625 -0.445 1.0625 -1.125 1.0625 C-1.125 1.7225 -1.125 2.3825 -1.125 3.0625 C-2.445 2.7325 -3.765 2.4025 -5.125 2.0625 C-5.125 1.4025 -5.125 0.7425 -5.125 0.0625 C-3.125 -0.9375 -3.125 -0.9375 0 0 Z " fill="#6F583A" transform="translate(1047.125,393.9375)"/>
<path d="M0 0 C0.33 0 0.66 0 1 0 C1.33 1.98 1.66 3.96 2 6 C1.01 6.495 1.01 6.495 0 7 C0 6.34 0 5.68 0 5 C-0.763125 5.04125 -1.52625 5.0825 -2.3125 5.125 C-5 5 -5 5 -8 3 C-8 2.34 -8 1.68 -8 1 C-5.66666667 1 -3.33333333 1 -1 1 C-0.67 0.67 -0.34 0.34 0 0 Z " fill="#1E170E" transform="translate(1036,426)"/>
<path d="M0 0 C0.9590625 0.2784375 0.9590625 0.2784375 1.9375 0.5625 C2.9584375 0.7790625 2.9584375 0.7790625 4 1 C4.33 0.67 4.66 0.34 5 0 C5.99 0.33 6.98 0.66 8 1 C8 2.32 8 3.64 8 5 C4.25 6.125 4.25 6.125 2 5 C2 4.01 2 3.02 2 2 C1.34 2 0.68 2 0 2 C0 1.34 0 0.68 0 0 Z " fill="#59472D" transform="translate(1041,385)"/>
<path d="M0 0 C2.0839403 0.11443603 4.16716493 0.24195547 6.25 0.375 C7.41015625 0.44460937 8.5703125 0.51421875 9.765625 0.5859375 C12.70694334 0.96248308 14.49949011 1.4774123 17 3 C5.47835991 3.3690205 5.47835991 3.3690205 0 1 C0 0.67 0 0.34 0 0 Z " fill="#633E18" transform="translate(885,179)"/>
<path d="M0 0 C0 1.65 0 3.3 0 5 C-1.98 5.33 -3.96 5.66 -6 6 C-6 5.34 -6 4.68 -6 4 C-6.66 4 -7.32 4 -8 4 C-8 3.34 -8 2.68 -8 2 C-4.77208445 -0.1519437 -3.71599191 -0.20086443 0 0 Z " fill="#6A5335" transform="translate(1029,416)"/>
<path d="M0 0 C1.32 0 2.64 0 4 0 C3.39816251 2.02045442 2.72693904 4.02111039 2 6 C1.01 6.495 1.01 6.495 0 7 C-2.125 6.0625 -2.125 6.0625 -4 5 C-4 4.34 -4 3.68 -4 3 C-3.01 3 -2.02 3 -1 3 C-0.67 2.01 -0.34 1.02 0 0 Z " fill="#493925" transform="translate(882,405)"/>
<path d="M0 0 C0.33 0.66 0.66 1.32 1 2 C-0.91635217 2.05423638 -2.83314925 2.09289963 -4.75 2.125 C-6.35101562 2.15980469 -6.35101562 2.15980469 -7.984375 2.1953125 C-10.92470106 2.00487687 -12.52361878 1.52670104 -15 0 C-10.11052208 -1.46684337 -4.94877422 -1.05390562 0 0 Z " fill="#827762" transform="translate(884,177)"/>
<path d="M0 0 C0.99 0.33 1.98 0.66 3 1 C3 1.66 3 2.32 3 3 C3.66 3 4.32 3 5 3 C5.33 3.99 5.66 4.98 6 6 C1.25 7.125 1.25 7.125 -1 6 C-1 5.34 -1 4.68 -1 4 C-0.01 4 0.98 4 2 4 C0.68 3.34 -0.64 2.68 -2 2 C-1.34 1.34 -0.68 0.68 0 0 Z " fill="#463723" transform="translate(1073,361)"/>
<path d="M0 0 C0.33 0 0.66 0 1 0 C1 2.64 1 5.28 1 8 C-5.15234375 7.4140625 -5.15234375 7.4140625 -7 7 C-7.33 6.34 -7.66 5.68 -8 5 C-5.69 5 -3.38 5 -1 5 C-0.67 3.35 -0.34 1.7 0 0 Z " fill="#5E4D41" transform="translate(939,315)"/>
<path d="M0 0 C3.3 0 6.6 0 10 0 C10 1.98 10 3.96 10 6 C9.34 5.67 8.68 5.34 8 5 C8 4.34 8 3.68 8 3 C5.36 2.34 2.72 1.68 0 1 C0 0.67 0 0.34 0 0 Z " fill="#8C7353" transform="translate(1162,50)"/>
<path d="M0 0 C0.96808594 0.10957031 1.93617187 0.21914063 2.93359375 0.33203125 C4.38958984 0.47705078 4.38958984 0.47705078 5.875 0.625 C8.37109375 1.14453125 8.37109375 1.14453125 10.37109375 3.14453125 C5.09109375 3.14453125 -0.18890625 3.14453125 -5.62890625 3.14453125 C-2.62890625 0.14453125 -2.62890625 0.14453125 0 0 Z " fill="#C8B18B" transform="translate(1133.62890625,44.85546875)"/>
<path d="M0 0 C0.99 0.33 1.98 0.66 3 1 C4.125 6.625 4.125 6.625 3 10 C2.34 10 1.68 10 1 10 C0.05383672 6.57015811 0 3.55824425 0 0 Z " fill="#393121" transform="translate(841,337)"/>
<path d="M0 0 C0.33 0 0.66 0 1 0 C1.82810601 6.81508864 2.50413785 12.51870203 0 19 C-0.33 19 -0.66 19 -1 19 C-1.12086218 12.56744599 -0.82351864 6.38226945 0 0 Z " fill="#7B8781" transform="translate(1027,50)"/>
<path d="M0 0 C0.28875 0.639375 0.5775 1.27875 0.875 1.9375 C1.82823451 4.15206079 1.82823451 4.15206079 4 5 C3.67 5.66 3.34 6.32 3 7 C0.69 6.67 -1.62 6.34 -4 6 C-3.34 4.68 -2.68 3.36 -2 2 C-1.01 2.99 -0.02 3.98 1 5 C0.34 3.68 -0.32 2.36 -1 1 C-0.67 0.67 -0.34 0.34 0 0 Z " fill="#6F5737" transform="translate(1035,413)"/>
<path d="M0 0 C0.66 0.33 1.32 0.66 2 1 C1.814375 1.78375 1.62875 2.5675 1.4375 3.375 C0.74037734 5.97089775 0.74037734 5.97089775 2 8 C1.01 8 0.02 8 -1 8 C-1.144375 7.401875 -1.28875 6.80375 -1.4375 6.1875 C-1.8872439 4.43849596 -2.42892341 2.71322977 -3 1 C-2.01 0.67 -1.02 0.34 0 0 Z " fill="#302517" transform="translate(867,415)"/>
<path d="M0 0 C0.66 0.99 1.32 1.98 2 3 C1.34 4.32 0.68 5.64 0 7 C0 6.34 0 5.68 0 5 C-1.98 5 -3.96 5 -6 5 C-5.67 4.01 -5.34 3.02 -5 2 C-3.35 2.33 -1.7 2.66 0 3 C0 2.01 0 1.02 0 0 Z " fill="#816744" transform="translate(1033,403)"/>
<path d="M0 0 C1.4540625 0.0309375 1.4540625 0.0309375 2.9375 0.0625 C2.9375 0.7225 2.9375 1.3825 2.9375 2.0625 C1.9475 2.5575 1.9475 2.5575 0.9375 3.0625 C0.6075 4.0525 0.2775 5.0425 -0.0625 6.0625 C-0.7225 6.0625 -1.3825 6.0625 -2.0625 6.0625 C-2.7225 4.4125 -3.3825 2.7625 -4.0625 1.0625 C-3.0625 0.0625 -3.0625 0.0625 0 0 Z " fill="#785F3E" transform="translate(1017.0625,416.9375)"/>
<path d="M0 0 C1.65 0 3.3 0 5 0 C5.33 1.32 5.66 2.64 6 4 C4.68 4 3.36 4 2 4 C2 3.34 2 2.68 2 2 C1.34 2 0.68 2 0 2 C-0.33 2.66 -0.66 3.32 -1 4 C-0.67 2.68 -0.34 1.36 0 0 Z " fill="#4C3C27" transform="translate(1000,415)"/>
<path d="M0 0 C0.78375 0.04125 1.5675 0.0825 2.375 0.125 C1.375 3.125 1.375 3.125 -0.625 5.125 C-3.25 5.25 -3.25 5.25 -5.625 5.125 C-4.41988658 1.50965974 -3.92406511 0.18686024 0 0 Z " fill="#514029" transform="translate(1073.625,369.875)"/>
<path d="M0 0 C1.98 1.65 3.96 3.3 6 5 C4.25 6.125 4.25 6.125 2 7 C-0.25 6.125 -0.25 6.125 -2 5 C-2 4.01 -2 3.02 -2 2 C-1.34 2 -0.68 2 0 2 C0 1.34 0 0.68 0 0 Z " fill="#655034" transform="translate(1065,373)"/>
<path d="M0 0 C2.97 0.495 2.97 0.495 6 1 C5 3 5 3 1.9375 4.125 C0.968125 4.41375 -0.00125 4.7025 -1 5 C-0.67 3.35 -0.34 1.7 0 0 Z " fill="#79603F" transform="translate(1057,378)"/>
<path d="M0 0 C1 3 1 3 0 6 C-1.98 6 -3.96 6 -6 6 C-4 4 -2 2 0 0 Z " fill="#997A4F" transform="translate(1017,437)"/>
<path d="M0 0 C0.33 0.66 0.66 1.32 1 2 C2.33076989 2.34342449 3.66431979 2.67619874 5 3 C5.66 3.66 6.32 4.32 7 5 C4.69 5 2.38 5 0 5 C-0.33 4.34 -0.66 3.68 -1 3 C-0.67 2.01 -0.34 1.02 0 0 Z " fill="#5C472C" transform="translate(1027,427)"/>
<path d="M0 0 C2.97 0.495 2.97 0.495 6 1 C5.34 2.32 4.68 3.64 4 5 C3.01 4.67 2.02 4.34 1 4 C0.3125 1.9375 0.3125 1.9375 0 0 Z " fill="#8A6C46" transform="translate(909,431)"/>
<path d="M0 0 C1.32 0.33 2.64 0.66 4 1 C4 1.99 4 2.98 4 4 C4.66 4.33 5.32 4.66 6 5 C4.02 5 2.04 5 0 5 C0 3.35 0 1.7 0 0 Z " fill="#53422B" transform="translate(925,416)"/>
<path d="M0 0 C2.475 0.495 2.475 0.495 5 1 C4.67 1.99 4.34 2.98 4 4 C3.01 4 2.02 4 1 4 C0.67 4.66 0.34 5.32 0 6 C0.185625 5.38125 0.37125 4.7625 0.5625 4.125 C1.23686176 1.95839822 1.23686176 1.95839822 0 0 Z " fill="#745A38" transform="translate(848,427)"/>
<path d="M0 0 C3 1 3 1 5 2 C5 2.99 5 3.98 5 5 C2.08482708 3.92598892 0.22189824 3.22189824 -2 1 C-1.34 0.67 -0.68 0.34 0 0 Z " fill="#755A39" transform="translate(855,422)"/>
<path d="M0 0 C0.66 0.33 1.32 0.66 2 1 C1.34 2.98 0.68 4.96 0 7 C-0.66 7 -1.32 7 -2 7 C-2.33 7.66 -2.66 8.32 -3 9 C-2.5020163 5.26512223 -2.12508244 3.18762365 0 0 Z " fill="#352E1F" transform="translate(843,327)"/>
</svg>
